<svg width="64" height="64" viewBox="0 0 64 64" fill="none" xmlns="http://www.w3.org/2000/svg">
  <rect x="6" y="6" width="52" height="52" rx="9" fill="#EF334E"/>
  <path d="M41 6h8a9 9 0 0 1 9 9v34a9 9 0 0 1-9 9h-8V6Z" fill="#F85A70"/>
  <path d="M6 42h35c9.4 0 17 7.6 17 17H15a9 9 0 0 1-9-9v-8Z" fill="#C91532"/>
  <g fill="white">
    <path d="M20 42V23c0-5.2 3.7-8.8 9.1-8.8h6.8v5.6h-6.3c-2.2 0-3.5 1.3-3.5 3.5v3.1h6.8c5.4 0 9.1 3.4 9.1 8.1 0 4.6-3.7 7.5-9.2 7.5H20Zm6.1-5.5h6.2c2.1 0 3.5-.9 3.5-2.4 0-1.6-1.4-2.5-3.6-2.5h-6.1v4.9Z"/>
    <path d="M44 16v19c0 5.2-3.7 8.8-9.1 8.8h-6.8v-5.6h6.3c2.2 0 3.5-1.3 3.5-3.5v-3.1h-6.8c-5.4 0-9.1-3.4-9.1-8.1 0-4.6 3.7-7.5 9.2-7.5H44Zm-6.1 5.5h-6.2c-2.1 0-3.5.9-3.5 2.4 0 1.6 1.4 2.5 3.6 2.5h6.1v-4.9Z"/>
  </g>
</svg>
