<svg width="64" height="64" viewBox="0 0 64 64" fill="none" xmlns="http://www.w3.org/2000/svg">
  <rect x="6" y="6" width="52" height="52" rx="9" fill="#12A96C"/>
  <path d="M41 6h8a9 9 0 0 1 9 9v34a9 9 0 0 1-9 9h-8V6Z" fill="#0B8F5C"/>
  <path d="M6 42h35c9.4 0 17 7.6 17 17H15a9 9 0 0 1-9-9v-8Z" fill="#087A50"/>
  <path d="M23.4 42c-5.8 0-10-2.7-11.7-6.9l5.5-3.1c1.2 2.6 3.3 4.1 6.3 4.1 2.8 0 4.3-1 4.3-2.8 0-2-2.1-2.7-6.6-3.8-4.7-1.2-8.6-3.2-8.6-8.4 0-5.4 4.4-8.6 10-8.6 4.9 0 8.7 2.2 10.7 5.9l-5.3 3c-1.1-2.1-2.8-3.3-5.3-3.3-2.3 0-3.8 1-3.8 2.7 0 1.8 1.5 2.5 6 3.6 4.9 1.3 9.2 3 9.2 8.7 0 5.4-4.3 8.9-10.7 8.9Z" fill="white"/>
</svg>
