<svg width="128" height="128" viewBox="0 0 64 64" xmlns="http://www.w3.org/2000/svg" role="img" aria-label="灵犀">
  <defs>
    <linearGradient id="lingxiRing" x1="8" y1="8" x2="56" y2="56" gradientUnits="userSpaceOnUse">
      <stop offset="0" stop-color="#8b4df4"/>
      <stop offset="0.36" stop-color="#3f8cff"/>
      <stop offset="0.7" stop-color="#29c6a5"/>
      <stop offset="1" stop-color="#f0b33e"/>
    </linearGradient>
  </defs>
  <path d="M16 12C23 7 37 8 47 17c9 8 11 22 5 32-6 9-19 12-30 8C11 53 5 42 8 30" fill="none" stroke="url(#lingxiRing)" stroke-width="8" stroke-linecap="round"/>
  <path d="M18 25c4-8 18-10 28-3 9 6 10 19 2 27-8 8-23 8-31 0-7-7-6-17 1-24Z" fill="#fff"/>
  <circle cx="26" cy="35" r="4" fill="#22252a"/>
  <circle cx="39" cy="35" r="4" fill="#22252a"/>
  <circle cx="25" cy="33.5" r="1.3" fill="#fff"/>
  <circle cx="38" cy="33.5" r="1.3" fill="#fff"/>
  <circle cx="14" cy="34" r="3.2" fill="#f0525b"/>
</svg>
