<svg width="264" height="172" viewBox="0 0 264 172" fill="none" xmlns="http://www.w3.org/2000/svg">
  <rect width="264" height="172" rx="16" fill="#F7F8FA"/>
  <rect x="16" y="16" width="232" height="140" rx="12" fill="white"/>
  <rect x="91" y="68" width="82" height="36" rx="18" fill="#17181C"/>
  <text x="132" y="91" fill="white" text-anchor="middle" font-family="-apple-system,BlinkMacSystemFont,'PingFang SC','Microsoft YaHei',sans-serif" font-size="14">销售分析</text>
  <path d="M91 86H58" stroke="#17181C" stroke-width="2"/>
  <path d="M173 86H206" stroke="#17181C" stroke-width="2"/>
  <path d="M132 68V42" stroke="#17181C" stroke-width="2"/>
  <path d="M132 104V130" stroke="#17181C" stroke-width="2"/>
  <path d="M98 74L66 49" stroke="#17181C" stroke-width="2"/>
  <path d="M166 98L199 122" stroke="#17181C" stroke-width="2"/>
  <g font-family="-apple-system,BlinkMacSystemFont,'PingFang SC','Microsoft YaHei',sans-serif" font-size="12">
    <rect x="30" y="76" width="56" height="24" rx="12" fill="#F3F4F6" stroke="#E8E8EC"/>
    <text x="46" y="92" fill="#17181C">区域</text>
    <rect x="178" y="76" width="56" height="24" rx="12" fill="#F3F4F6" stroke="#E8E8EC"/>
    <text x="194" y="92" fill="#17181C">产品</text>
    <rect x="104" y="28" width="56" height="24" rx="12" fill="#F3F4F6" stroke="#E8E8EC"/>
    <text x="120" y="44" fill="#17181C">趋势</text>
    <rect x="104" y="120" width="56" height="24" rx="12" fill="#F3F4F6" stroke="#E8E8EC"/>
    <text x="120" y="136" fill="#17181C">建议</text>
    <rect x="34" y="38" width="64" height="24" rx="12" fill="#F3F4F6" stroke="#E8E8EC"/>
    <text x="48" y="54" fill="#17181C">渠道</text>
    <rect x="176" y="110" width="64" height="24" rx="12" fill="#F3F4F6" stroke="#E8E8EC"/>
    <text x="190" y="126" fill="#17181C">复盘</text>
  </g>
</svg>
